<?xml version="1.0" encoding="utf-8"?>
<!-- Generator: Adobe Illustrator 19.1.0, SVG Export Plug-In . SVG Version: 6.00 Build 0)  -->
<svg version="1.1" id="Layer_1" xmlns="http://www.w3.org/2000/svg" xmlns:xlink="http://www.w3.org/1999/xlink" x="0px" y="0px"
	 viewBox="0 0 200 121.9" style="enable-background:new 0 0 200 121.9;" xml:space="preserve">
<style type="text/css">
	.st0{fill:#9F8572;}
	.st1{fill:#C1A58E;}
	.st2{fill:#49494A;}
	.st3{fill:#5C5C5C;}
	.st4{fill:#7A7B7B;}
	.st5{fill:#A4A4A4;}
	.st6{fill:#B11E3B;}
	.st7{fill:none;stroke:#5C5C5C;stroke-width:0.9732;stroke-linecap:round;stroke-miterlimit:10;}
	.st8{fill:#3A3939;}
	.st9{fill:#D3D3D3;}
	.st10{fill:#BBBBBC;}
	.st11{fill:#787878;}
	.st12{fill:#FFFFFF;}
	.st13{fill:#7D7D7D;}
	.st14{fill:#606161;}
	.st15{fill:url(#SVGID_1_);}
	.st16{fill:url(#SVGID_2_);}
	.st17{fill:#45362E;}
	.st18{fill:url(#SVGID_3_);}
	.st19{fill:url(#SVGID_4_);}
	.st20{fill:url(#SVGID_5_);}
	.st21{fill:url(#SVGID_6_);}
	.st22{fill:url(#SVGID_7_);}
	.st23{fill:#262626;}
	.st24{fill:#353535;}
	.st25{fill:#1B1C1C;stroke:#000000;stroke-width:1.7792;stroke-miterlimit:10;}
	.st26{fill:#161616;}
	.st27{fill:#151415;}
	.st28{fill:#1D1D1D;}
	.st29{fill:#D1D1D1;stroke:#121112;stroke-width:1.8708;stroke-miterlimit:10;}
	.st30{fill:#DDDDDC;}
	.st31{fill:#EFEFEF;}
	.st32{fill:#575757;}
	.st33{fill:#8B182E;}
	.st34{fill:#B11E3B;stroke:#8B182E;stroke-width:1.9013;stroke-miterlimit:10;}
	.st35{fill:none;stroke:#CE2D4D;stroke-width:1.1216;stroke-miterlimit:10;}
	.st36{fill:none;stroke:#575757;stroke-width:2.2432;stroke-miterlimit:10;}
	.st37{fill:#B11E3B;stroke:#8B182E;stroke-width:2.2432;stroke-miterlimit:10;}
	.st38{fill:#B11E3B;stroke:#000000;stroke-width:2.1812;stroke-miterlimit:10;}
	.st39{fill:none;stroke:#444445;stroke-width:1.0906;stroke-miterlimit:10;}
	.st40{fill:#444445;}
	.st41{fill:#B11E3B;stroke:#282827;stroke-width:2.2432;stroke-miterlimit:10;}
	.st42{fill:#B11E3B;stroke:#282827;stroke-width:2.2625;stroke-miterlimit:10;}
	.st43{fill:none;stroke:#575757;stroke-width:2.2625;stroke-miterlimit:10;}
	.st44{fill:#494848;}
	.st45{fill:#6B6B6B;}
	.st46{fill:#CECECD;}
	.st47{fill:none;stroke:#DDDDDC;stroke-width:2.5284;stroke-miterlimit:10;}
	.st48{fill:#B11E3B;stroke:#8B182E;stroke-width:1.9326;stroke-miterlimit:10;}
</style>
<g>
	<path class="st0" d="M43.4,0c-1.2,0-2.2,1-2.2,2.2v12.6c0,1.2,1,2.2,2.2,2.2c1.2,0,2.2-1,2.2-2.2V2.2C45.6,1,44.6,0,43.4,0z
		 M43.4,3.4c-0.6,0-1.1-0.5-1.1-1.1c0-0.6,0.5-1.1,1.1-1.1c0.6,0,1.1,0.5,1.1,1.1C44.5,2.9,44,3.4,43.4,3.4z"/>
	<g>
		<rect x="25.8" y="30.1" class="st1" width="148.5" height="10.9"/>
		<rect x="25.8" y="38.6" class="st0" width="148.5" height="4.5"/>
	</g>
	<g>
		<polygon class="st2" points="163.1,35.7 150,39.9 150,55.1 163.1,55.1 		"/>
		<polygon class="st2" points="165.3,39.6 160.1,30.1 150,39.9 159.2,45.7 		"/>
		<polygon class="st2" points="174.2,43.1 174.2,30.1 160.1,30.1 158.8,43.1 		"/>
	</g>
	<g>
		<rect x="25.8" y="114.8" class="st0" width="148.5" height="7.1"/>
		<rect x="25.8" y="111.3" class="st1" width="148.5" height="7.1"/>
	</g>
	<rect x="124.6" y="53.2" class="st3" width="47.8" height="51.5"/>
	<rect x="124.6" y="53.2" class="st4" width="47.8" height="6.9"/>
	<rect x="122.7" y="53.2" class="st5" width="51.5" height="3.4"/>
	<rect x="122.7" y="103" class="st5" width="51.5" height="3.4"/>
	<rect x="131.7" y="75" class="st4" width="21.4" height="21.4"/>
	<rect x="134.8" y="78.6" class="st6" width="3.1" height="14.2"/>
	<rect x="140.9" y="78.6" class="st6" width="3.1" height="14.2"/>
	<rect x="146.9" y="78.6" class="st6" width="3.1" height="14.2"/>
	<polygon class="st3" points="130.3,111.3 127,111.3 127,106.4 132.2,106.4 	"/>
	<polygon class="st3" points="167.2,111.3 170.5,111.3 170.5,106.4 165.4,106.4 	"/>
	<circle class="st2" cx="163.1" cy="78.9" r="3"/>
	<rect x="131.7" y="74.2" class="st5" width="21.4" height="1.5"/>
	<rect x="131.7" y="95.6" class="st2" width="21.4" height="1.5"/>
	<rect x="124.6" y="59.3" class="st2" width="47.8" height="1.5"/>
	<circle class="st4" cx="163.1" cy="78" r="3"/>
	<circle class="st5" cx="163.1" cy="78" r="1.6"/>
	<g>
		<polygon class="st4" points="163.1,41.1 160.4,43.1 160.4,53.2 163.1,53.2 		"/>
		<polygon class="st4" points="160.4,43.1 163.1,40.3 174.2,40.3 174.2,43.1 		"/>
	</g>
	<g>
		<rect x="25.8" y="70.1" class="st1" width="93.4" height="10.9"/>
		<rect x="25.8" y="78.6" class="st0" width="93.4" height="4.5"/>
	</g>
	<polygon class="st4" points="61.2,9.8 37.6,9.8 39.6,30.1 59.3,30.1 	"/>
	<polyline class="st3" points="37.6,9.8 38.2,15.7 60.7,15.7 61.2,9.8 	"/>
	<rect x="36.4" y="9.8" class="st5" width="25.5" height="4.1"/>
	<g>
		<polyline class="st7" points="76.6,29.2 77.9,27.2 101.8,28.8 		"/>
		<path class="st0" d="M109.6,28.5l-15.6-1c-0.4,0-0.8,0.3-0.8,0.7v0c0,0.4,0.3,0.8,0.7,0.8l15.6,1c0.4,0,0.8-0.3,0.8-0.7v0
			C110.4,28.9,110,28.6,109.6,28.5z"/>
	</g>
	<polygon class="st5" points="75.6,30.1 69.6,27.6 70.3,22.3 78.8,25.7 	"/>
</g>
</svg>
