<?xml version="1.0" encoding="utf-8"?>
<!-- Generator: Adobe Illustrator 19.2.0, SVG Export Plug-In . SVG Version: 6.00 Build 0)  -->
<svg version="1.1" id="Layer_1" xmlns="http://www.w3.org/2000/svg" xmlns:xlink="http://www.w3.org/1999/xlink" x="0px" y="0px"
	 viewBox="0 0 200 121.9" style="enable-background:new 0 0 200 121.9;" xml:space="preserve">
<style type="text/css">
	.st0{fill:#A4A4A4;}
	.st1{fill:none;stroke:#7A7B7B;stroke-width:3;stroke-miterlimit:10;}
	.st2{fill:#7A7B7B;}
	.st3{fill:#C1A58E;}
	.st4{fill:#9F8572;}
	.st5{fill:#B11E3B;}
	.st6{fill:#8B182E;}
	.st7{fill:#FFFFFF;}
</style>
<g>
	<g>
		<g>
			<polygon class="st0" points="68,35.4 63.5,35.4 68,30.9 			"/>
			<polygon class="st0" points="63.5,65.4 68,65.4 63.5,69.9 			"/>
		</g>
		<g>
			<polygon class="st0" points="80.7,52.7 80.7,48.2 85.2,52.7 			"/>
			<polygon class="st0" points="50.7,48.2 50.7,52.7 46.2,48.2 			"/>
		</g>
		<g>
			<polygon class="st0" points="77.9,41.4 74.7,38.2 81.1,38.2 			"/>
			<polygon class="st0" points="53.5,59.4 56.7,62.6 50.3,62.6 			"/>
		</g>
		<g>
			<polygon class="st0" points="74.7,62.6 77.9,59.4 77.9,65.8 			"/>
			<polygon class="st0" points="56.7,38.2 53.5,41.4 53.5,35 			"/>
		</g>
		<g>
			<g>
				<polygon class="st0" points="80.8,48.6 79.6,44.3 85.2,47.5 				"/>
				<polygon class="st0" points="50.7,52.2 51.8,56.5 46.3,53.4 				"/>
			</g>
			<g>
				<polygon class="st0" points="67.5,65.5 71.9,64.3 68.7,69.8 				"/>
				<polygon class="st0" points="64,35.3 59.6,36.5 62.8,31 				"/>
			</g>
		</g>
		<g>
			<g>
				<polygon class="st0" points="79.7,56.4 80.8,52.1 84,57.6 				"/>
				<polygon class="st0" points="51.8,44.4 50.6,48.8 47.4,43.2 				"/>
			</g>
			<g>
				<polygon class="st0" points="59.7,64.3 64.1,65.5 58.6,68.7 				"/>
				<polygon class="st0" points="71.8,36.5 67.4,35.3 72.9,32.1 				"/>
			</g>
		</g>
		<g>
			<g>
				<polygon class="st0" points="77.5,60 79.8,56.1 81.4,62.3 				"/>
				<polygon class="st0" points="53.9,40.9 51.7,44.7 50.1,38.6 				"/>
			</g>
			<g>
				<polygon class="st0" points="56.2,62.2 60.1,64.5 53.9,66.1 				"/>
				<polygon class="st0" points="75.3,38.6 71.4,36.3 77.6,34.7 				"/>
			</g>
		</g>
		<g>
			<g>
				<polygon class="st0" points="71.2,64.5 75.2,62.3 73.5,68.5 				"/>
				<polygon class="st0" points="60.2,36.3 56.3,38.5 58,32.4 				"/>
			</g>
			<g>
				<polygon class="st0" points="51.6,55.9 53.8,59.8 47.7,58.2 				"/>
				<polygon class="st0" points="79.9,44.9 77.6,41 83.8,42.7 				"/>
			</g>
		</g>
	</g>
	<circle class="st0" cx="65.7" cy="50.4" r="15.4"/>
</g>
<circle class="st1" cx="65.7" cy="50.4" r="7.5"/>
<g>
	<rect x="25.8" y="114.8" class="st2" width="148.5" height="7.1"/>
	<rect x="25.8" y="111.3" class="st0" width="148.5" height="7.1"/>
</g>
<text transform="matrix(1 0 0 1 420.9448 297.6399)" style="font-family:'MyriadPro-Regular'; font-size:12px;">SPV50E00EU</text>
<g>
	<rect x="25.8" y="47.1" class="st3" width="113.9" height="12.4"/>
	<rect x="25.8" y="56.8" class="st4" width="113.9" height="5.1"/>
</g>
<rect x="33" y="61.9" class="st5" width="99.5" height="49.4"/>
<polygon class="st6" points="33,61.9 33,111.3 53.9,111.3 "/>
<g>
	<g>
		<rect x="116.9" y="4.6" class="st3" width="3.5" height="34.1"/>
		<path class="st0" d="M123.7,0c0,0.7-0.5,1.2-1.2,1.2s-1.2-0.5-1.2-1.2h-1.1h-3.7h-1.1c0,0-1.8,0-2.6,0c-1.7,0-3,1.4-3,3
			c0,0.5,0.1,0.9,0.3,1.4c0.2-1.5,1.5-2.6,3-2.6c1.6,0,2.9,1.2,3,2.8h0.4h3.7h1.1c0-0.7,0.5-1.2,1.2-1.2s1.2,0.5,1.2,1.2h3.4V0
			H123.7z"/>
	</g>
	<g>
		<rect x="114.8" y="4.6" class="st6" width="2.3" height="2.3"/>
		<rect x="120.2" y="4.6" class="st6" width="2.3" height="2.3"/>
	</g>
</g>
<g>
	<polygon class="st0" points="97.7,2.3 97.7,35.6 98.2,37.6 98.5,37.6 99,35.6 99,2.3 	"/>
	<path class="st5" d="M99.6,19.3c0-0.6,0.5-1,1-1V4.4c0-1.2-1-2.1-2.1-2.1h-0.2c-1.2,0-2.1,1-2.1,2.1v13.8c0.6,0,1,0.5,1,1
		s-0.5,1-1,1v1.5h4.5v-1.5C100,20.3,99.6,19.9,99.6,19.3z"/>
	<rect x="97.2" y="4.6" class="st6" width="2.3" height="2.3"/>
</g>
<g>
	<g>
		<path class="st0" d="M135.3,36.8c0,1.5,0.8,2.8,1.9,3.5v-3.5l2.2-1.3l2.2,1.3v3.5c1.2-0.7,1.9-2,1.9-3.5c0-1.7-1.1-3.2-2.6-3.8
			V10.5h-3.3v22.5C136.2,33.7,135.3,35.1,135.3,36.8z"/>
		<path class="st0" d="M139.4,11.8c2.3,0,4.1-1.9,4.1-4.1s-1.9-4.1-4.1-4.1s-4.1,1.9-4.1,4.1S137.1,11.8,139.4,11.8z M136.7,7.1
			l0.6-0.3l-0.3-0.6l0.7,0l0-0.7l0.6,0.2l0.2-0.6l0.5,0.4l0.4-0.5l0.4,0.6l0.6-0.4l0.1,0.7l0.7-0.1l-0.1,0.7l0.7,0.1l-0.3,0.6
			l0.6,0.3l-0.5,0.5l0.4,0.5l-0.6,0.3l0.3,0.6l-0.7,0l0,0.7l-0.6-0.2l-0.2,0.6l-0.5-0.4l-0.4,0.5l-0.4-0.6l-0.6,0.4l-0.1-0.7
			l-0.7,0.1l0.1-0.7L137,9l0.3-0.6l-0.6-0.3l0.5-0.5L136.7,7.1z"/>
	</g>
	<rect x="138.2" y="4.6" class="st6" width="2.3" height="2.3"/>
</g>
<g>
	<g>
		<g>
			<path class="st5" d="M171.5,2.9h-12.8c-1.6,0-2.8,1.3-2.8,2.8v10h18.5v-10C174.3,4.2,173,2.9,171.5,2.9z M171.5,12.6h-12.8V5.6
				h12.8V12.6z"/>
			<polyline class="st0" points="174.3,15.8 174.3,68.3 164.6,68.3 155.8,15.8 			"/>
		</g>
		<polygon class="st7" points="164.9,69.9 166,68.3 164.6,67.3 165.6,65.8 164.2,64.8 165.2,63.4 163.8,62.4 164.8,60.9 163.4,59.9 
			164.4,58.5 163,57.5 164,56.1 162.6,55 163.6,53.6 162.2,52.6 163.2,51.2 161.8,50.1 162.8,48.7 161.4,47.7 162.4,46.3 161,45.3 
			162,43.8 160.5,42.8 161.6,41.4 160.1,40.4 161.2,38.9 159.7,37.9 160.8,36.5 159.3,35.5 160.3,34.1 158.9,33 159.9,31.6 
			158.5,30.6 159.5,29.2 158.1,28.2 159.1,26.7 157.7,25.7 158.7,24.3 157.3,23.3 158.3,21.8 156.9,20.8 157.9,19.4 156.5,18.4 
			157.5,17 155.9,15.8 154.5,16 164.1,70.3 		"/>
	</g>
	<rect x="163.9" y="4.6" class="st6" width="2.3" height="2.3"/>
	<rect x="158.6" y="11.6" class="st6" width="12.8" height="1.8"/>
</g>
</svg>
