<?xml version="1.0" encoding="utf-8"?>
<!-- Generator: Adobe Illustrator 19.2.0, SVG Export Plug-In . SVG Version: 6.00 Build 0)  -->
<svg version="1.1" id="Layer_1" xmlns="http://www.w3.org/2000/svg" xmlns:xlink="http://www.w3.org/1999/xlink" x="0px" y="0px"
	 viewBox="0 0 200 121.9" style="enable-background:new 0 0 200 121.9;" xml:space="preserve">
<style type="text/css">
	.st0{fill:#9F8572;}
	.st1{fill:#7A7B7B;}
	.st2{fill:#5C5C5C;}
	.st3{fill:#A4A4A4;}
	.st4{fill:none;stroke:#5C5C5C;stroke-width:0.9732;stroke-linecap:round;stroke-miterlimit:10;}
	.st5{fill:none;stroke:#5C5C5C;stroke-width:4;stroke-miterlimit:10;}
	.st6{fill:#6B6B6B;}
	.st7{fill:#444444;}
	.st8{fill:#E8E8E8;}
	.st9{fill:#B11E3B;}
	.st10{fill:#FFFFFF;}
	.st11{fill:#991434;}
	.st12{fill:#C1A58E;}
	.st13{fill:#49494A;}
	.st14{fill:#686868;}
	.st15{fill:#D8BCA7;}
	.st16{fill:#CE9B36;}
	.st17{fill:none;stroke:#CE9B36;stroke-width:2;stroke-miterlimit:10;}
	.st18{fill:none;stroke:#CE9B36;stroke-width:2;stroke-linecap:round;stroke-miterlimit:10;}
</style>
<image style="overflow:visible;" width="538" height="824" xlink:href="../Downloads/Busgjallar Etta.png (1).PNG"  transform="matrix(8.091195e-12 0.2194 -0.1802 9.852009e-12 174.2997 153.4)">
</image>
<path class="st0" d="M243.9,0c-1.2,0-2.2,1-2.2,2.2v12.6c0,1.2,1,2.2,2.2,2.2c1.2,0,2.2-1,2.2-2.2V2.2C246,1,245,0,243.9,0z
	 M243.9,3.4c-0.6,0-1.1-0.5-1.1-1.1s0.5-1.1,1.1-1.1c0.6,0,1.1,0.5,1.1,1.1S244.4,3.4,243.9,3.4z"/>
<polygon class="st1" points="261.6,9.8 238,9.8 240,30.1 259.8,30.1 "/>
<polyline class="st2" points="238,9.8 238.6,15.7 261.1,15.7 261.6,9.8 "/>
<rect x="236.9" y="9.8" class="st3" width="25.5" height="4.1"/>
<g>
	<polyline class="st4" points="277,29.2 278.4,27.2 302.2,28.8 	"/>
	<path class="st0" d="M310,28.5l-15.6-1c-0.4,0-0.8,0.3-0.8,0.7l0,0c0,0.4,0.3,0.8,0.7,0.8l15.6,1c0.4,0,0.8-0.3,0.8-0.7l0,0
		C310.9,28.9,310.5,28.6,310,28.5z"/>
</g>
<polygon class="st3" points="276,30.1 270,27.6 270.8,22.3 279.2,25.7 "/>
<polyline class="st5" points="47.7,-60.4 29.5,-60.4 29.5,-128.9 168.2,-128.9 168.2,-125.1 "/>
<g>
	<g>
		<rect x="-167.3" y="4.2" class="st3" width="140.8" height="113.6"/>
	</g>
	<g>
		<rect x="-166.1" y="98.9" class="st6" width="44.5" height="18.9"/>
	</g>
	<g>
		<rect x="-113.9" y="98.9" class="st6" width="16.1" height="18.9"/>
	</g>
	<g>
		<rect x="-112.2" y="3.8" class="st6" width="13.1" height="15.6"/>
	</g>
	<g>
		<rect x="-126.6" y="19.3" class="st6" width="14.9" height="55.4"/>
	</g>
	<g>
		<g>
			<polygon class="st7" points="-24.5,119.7 -167.3,119.7 -167.3,98.9 -163.3,98.9 -163.3,115.7 -28.5,115.7 -28.5,47.1 -24.5,47.1 
							"/>
		</g>
	</g>
	<g>
		<g>
			<polygon class="st7" points="-124.8,74.7 -128.9,74.7 -128.9,70.7 -128.8,70.7 -128.8,15.5 -115.7,15.5 -115.7,4.2 -111.7,4.2 
				-111.7,19.5 -124.8,19.5 			"/>
		</g>
	</g>
	<g>
		<g>
			<g>
				<rect x="-128.8" y="4.2" class="st7" width="4" height="15.3"/>
			</g>
		</g>
	</g>
	<g>
		<rect x="-121.6" y="98.9" class="st7" width="7.7" height="18.9"/>
	</g>
	<g>
		<rect x="-28.5" y="8" class="st8" width="4" height="39.1"/>
	</g>
	<g>
		<polygon class="st1" points="-48,61.5 -84,61.5 -84,115.7 -46.1,115.7 -41.8,66.2 		"/>
	</g>
	<g>
		<rect x="-78.6" y="66.2" class="st9" width="36.8" height="49.6"/>
	</g>
	<g>
		<rect x="-78.6" y="104.7" class="st10" width="36.8" height="11"/>
	</g>
	<g>
		<rect x="-78.6" y="99.2" class="st11" width="36.8" height="8.4"/>
	</g>
	<g>
		<rect x="-165.3" y="4.3" class="st6" width="19.5" height="19.5"/>
	</g>
	<g>
		
			<rect x="-93.2" y="13" transform="matrix(0.7071 -0.7071 0.7071 0.7071 -39.0401 -53.4357)" class="st1" width="18.3" height="14.8"/>
	</g>
	<g>
		
			<rect x="-90.2" y="16" transform="matrix(0.7071 -0.7071 0.7071 0.7071 -40.2665 -50.4749)" class="st9" width="18.3" height="14.8"/>
	</g>
	<g>
		
			<rect x="-84.6" y="19.4" transform="matrix(0.7071 -0.7071 0.7071 0.7071 -40.8554 -49.0532)" class="st11" width="10" height="10.8"/>
	</g>
	<g>
		<polyline class="st1" points="-68.2,15.5 -73.1,10.7 -73.1,4.2 -63,4.2 		"/>
	</g>
	<g>
		<polyline class="st1" points="-139.2,20.6 -143.6,16.3 -143.6,6.3 -136.3,6.3 		"/>
	</g>
	<g>
		<path class="st6" d="M-140.4,5.3h8.3v12.4c0,2.3-1.9,4.1-4.1,4.1l0,0c-2.3,0-4.1-1.9-4.1-4.1V5.3z"/>
	</g>
	<g>
		<rect x="-68.2" y="5.3" class="st6" width="32.5" height="10.2"/>
	</g>
	<g>
		<polyline class="st1" points="-147.1,54.5 -153.1,48.5 -165.3,48.5 -165.3,59.6 		"/>
	</g>
	<g>
		<rect x="-163.3" y="54.5" class="st6" width="16.2" height="16.2"/>
	</g>
	<g>
		<g>
			<polygon class="st7" points="-147.1,74.7 -167.3,74.7 -167.3,2.2 -24.5,2.2 -24.5,8 -28.5,8 -28.5,6.2 -163.3,6.2 -163.3,70.7 
				-147.1,70.7 			"/>
		</g>
	</g>
	<g>
		<rect x="-125.8" y="3.2" class="st7" width="12.6" height="15.3"/>
	</g>
</g>
<g>
	<polygon class="st2" points="25.8,8 174.2,70.4 174.2,115.7 25.8,115.7 	"/>
	<rect x="25.8" y="82.4" class="st12" width="114.2" height="7.9"/>
	<polygon class="st2" points="130.3,114.3 127,114.3 127,113.4 132.2,113.4 	"/>
	<polygon class="st2" points="167.2,114.3 170.5,114.3 170.5,113.4 165.4,113.4 	"/>
	<g>
		<g>
			<polygon class="st13" points="165.6,66.4 156.2,62.4 156.2,73.1 165.6,73.1 			"/>
		</g>
		<rect x="140" y="71.7" class="st14" width="25.8" height="36.2"/>
		<rect x="140" y="71.7" class="st1" width="25.8" height="5"/>
		<rect x="138.6" y="71.7" class="st3" width="28.5" height="2.5"/>
		<rect x="138.6" y="106.7" class="st3" width="28.5" height="2.5"/>
		<rect x="145.1" y="87.4" class="st1" width="15.4" height="15.4"/>
		<rect x="147.4" y="90" class="st9" width="2.2" height="10.2"/>
		<rect x="151.8" y="90" class="st9" width="2.2" height="10.2"/>
		<rect x="156.1" y="90" class="st9" width="2.2" height="10.2"/>
		<circle class="st13" cx="147.6" cy="81.6" r="2.2"/>
		<rect x="145.1" y="86.8" class="st3" width="15.4" height="1.1"/>
		<rect x="145.1" y="102.3" class="st13" width="15.4" height="1.1"/>
		<rect x="140" y="76.1" class="st13" width="25.8" height="1.1"/>
		<circle class="st1" cx="147.6" cy="80.9" r="2.2"/>
		<circle class="st3" cx="147.6" cy="80.9" r="1.2"/>
		<g>
			<polygon class="st1" points="165.6,66.4 163.7,65.5 163.7,71.7 165.6,71.7 			"/>
		</g>
	</g>
	<rect x="25.8" y="78.1" class="st15" width="114.2" height="7.9"/>
	<rect x="25.8" y="112.9" class="st12" width="148.4" height="6.9"/>
	<rect x="25.8" y="109.2" class="st15" width="148.5" height="5.5"/>
	<polygon class="st3" points="174.2,57 157.8,57 157.8,57 157.6,56.9 157.6,50 141.3,50 141.1,49.9 141.1,43 124.8,43 124.7,43 
		124.7,36 108.3,36 108.2,36 108.2,29 91.8,29 91.7,29 91.7,22 75.3,22 75.2,22 75.2,15 58.8,15 58.8,15 58.8,8 42.3,8 42.3,1 
		25.8,1 25.8,4.4 25.8,8 25.8,9 174.2,71.4 	"/>
</g>
<g>
	<path class="st16" d="M48.4,78.1h-14c-0.6,0-1-0.5-1-1l0,0c0-0.6,0.5-1,1-1h14c0.6,0,1,0.5,1,1l0,0C49.5,77.6,49,78.1,48.4,78.1z"
		/>
</g>
<g>
	<path class="st16" d="M40.5,67.5c0,0,0,7.3-6.1,9.3V77c3.2,0,10.7,0,14.2,0v-0.2c-6.1-2-6.1-9.2-6.1-9.2"/>
</g>
<g>
	<rect x="40.5" y="41.7" class="st16" width="2" height="33.2"/>
</g>
<g>
	<path class="st16" d="M45.9,70.6c-2.9,0-5.3-2.4-5.3-5.3V49.9c0-2.9,2.4-5.3,5.3-5.3s5.3,2.4,5.3,5.3v15.4
		C51.2,68.2,48.8,70.6,45.9,70.6z M45.9,46.6c-1.8,0-3.3,1.5-3.3,3.3v15.4c0,1.8,1.5,3.3,3.3,3.3s3.3-1.5,3.3-3.3V49.9
		C49.2,48.1,47.7,46.6,45.9,46.6z"/>
</g>
<g>
	<path class="st16" d="M52.1,54.6H39.8c-0.6,0-1-0.4-1-1s0.4-1,1-1h12.3c0.6,0,1,0.4,1,1S52.6,54.6,52.1,54.6z"/>
</g>
<g>
	<path class="st16" d="M43.1,42.6h-3.4c-0.6,0-1-0.4-1-1s0.4-1,1-1h3.4c0.6,0,1,0.4,1,1S43.7,42.6,43.1,42.6z"/>
</g>
<g>
	<path class="st16" d="M52.1,57.7H39.8c-0.6,0-1-0.4-1-1s0.4-1,1-1h12.3c0.6,0,1,0.4,1,1S52.6,57.7,52.1,57.7z"/>
</g>
<g>
	<path class="st16" d="M52.1,60.7H39.8c-0.6,0-1-0.4-1-1s0.4-1,1-1h12.3c0.6,0,1,0.4,1,1S52.6,60.7,52.1,60.7z"/>
</g>
<path class="st16" d="M161.1-28.3h-14c-0.6,0-1-0.5-1-1v0c0-0.6,0.5-1,1-1h14c0.6,0,1,0.5,1,1v0C162.1-28.8,161.6-28.3,161.1-28.3z"
	/>
<path class="st16" d="M153.1-38.9c0,0,0,7.3-6.1,9.3v0.1c3.2,0,10.7,0,14.2,0v-0.2c-6.1-2-6.1-9.2-6.1-9.2"/>
<rect x="153.1" y="-64.8" class="st16" width="2" height="33.2"/>
<path class="st17" d="M158.5-36.9L158.5-36.9c-2.4,0-4.3-1.9-4.3-4.3v-15.4c0-2.4,1.9-4.3,4.3-4.3h0c2.4,0,4.3,1.9,4.3,4.3v15.4
	C162.8-38.8,160.9-36.9,158.5-36.9z"/>
<line class="st18" x1="152.4" y1="-52.8" x2="164.7" y2="-52.8"/>
<line class="st18" x1="152.4" y1="-64.8" x2="155.8" y2="-64.8"/>
<line class="st18" x1="152.4" y1="-49.7" x2="164.7" y2="-49.7"/>
<line class="st18" x1="152.4" y1="-46.7" x2="164.7" y2="-46.7"/>
</svg>
