<?xml version="1.0" encoding="utf-8"?>
<!-- Generator: Adobe Illustrator 19.1.0, SVG Export Plug-In . SVG Version: 6.00 Build 0)  -->
<svg version="1.1" id="Layer_1" xmlns="http://www.w3.org/2000/svg" xmlns:xlink="http://www.w3.org/1999/xlink" x="0px" y="0px"
	 viewBox="0 0 200 124.5" style="enable-background:new 0 0 200 124.5;" xml:space="preserve">
<style type="text/css">
	.st0{fill:#9F8572;}
	.st1{fill:#C1A58E;}
	.st2{fill:#49494A;}
	.st3{fill:#5C5C5C;}
	.st4{fill:#7A7B7B;}
	.st5{fill:#A4A4A4;}
	.st6{fill:#B11E3B;}
	.st7{fill:none;stroke:#5C5C5C;stroke-width:0.9732;stroke-linecap:round;stroke-miterlimit:10;}
	.st8{fill:#3A3939;}
	.st9{fill:#D3D3D3;}
	.st10{fill:#BBBBBC;}
	.st11{fill:#787878;}
	.st12{fill:#FFFFFF;}
	.st13{fill:#7D7D7D;}
	.st14{fill:#606161;}
	.st15{fill:url(#SVGID_1_);}
	.st16{fill:url(#SVGID_2_);}
	.st17{fill:#45362E;}
	.st18{fill:url(#SVGID_3_);}
	.st19{fill:url(#SVGID_4_);}
	.st20{fill:url(#SVGID_5_);}
	.st21{fill:url(#SVGID_6_);}
	.st22{fill:url(#SVGID_7_);}
	.st23{fill:#262626;}
	.st24{fill:#353535;}
	.st25{fill:#1B1C1C;stroke:#000000;stroke-width:1.7792;stroke-miterlimit:10;}
	.st26{fill:#161616;}
	.st27{fill:#151415;}
	.st28{fill:#1D1D1D;}
	.st29{fill:#D1D1D1;stroke:#121112;stroke-width:1.8708;stroke-miterlimit:10;}
	.st30{fill:#DDDDDC;}
	.st31{fill:#EFEFEF;}
	.st32{fill:#575757;}
	.st33{fill:#8B182E;}
	.st34{fill:#B11E3B;stroke:#8B182E;stroke-width:1.9013;stroke-miterlimit:10;}
	.st35{fill:none;stroke:#CE2D4D;stroke-width:1.1216;stroke-miterlimit:10;}
	.st36{fill:none;stroke:#575757;stroke-width:2.2432;stroke-miterlimit:10;}
	.st37{fill:#B11E3B;stroke:#8B182E;stroke-width:2.2432;stroke-miterlimit:10;}
	.st38{fill:#B11E3B;stroke:#000000;stroke-width:2.1812;stroke-miterlimit:10;}
	.st39{fill:none;stroke:#444445;stroke-width:1.0906;stroke-miterlimit:10;}
	.st40{fill:#444445;}
	.st41{fill:#B11E3B;stroke:#282827;stroke-width:2.2432;stroke-miterlimit:10;}
	.st42{fill:#B11E3B;stroke:#282827;stroke-width:2.2625;stroke-miterlimit:10;}
	.st43{fill:none;stroke:#575757;stroke-width:2.2625;stroke-miterlimit:10;}
	.st44{fill:#494848;}
	.st45{fill:#6B6B6B;}
	.st46{fill:#CECECD;}
	.st47{fill:none;stroke:#DDDDDC;stroke-width:2.5284;stroke-miterlimit:10;}
	.st48{fill:#B11E3B;stroke:#8B182E;stroke-width:1.9326;stroke-miterlimit:10;}
</style>
<g>
	<path class="st8" d="M162.5,48.3h-10.7c-1.7,0-3-1.3-3-3V28.8c0-1.7,1.3-3,3-3h10.7c1.7,0,3,1.3,3,3v16.5
		C165.5,47,164.1,48.3,162.5,48.3z"/>
	<path d="M165.5,28.2v17.6c0,1.4-1.1,2.5-2.5,2.5h-11.8c-1.4,0-2.5-1.1-2.5-2.5"/>
	<path class="st8" d="M48.2,48.3H37.5c-1.7,0-3-1.3-3-3V28.8c0-1.7,1.3-3,3-3h10.7c1.7,0,3,1.3,3,3v16.5
		C51.2,47,49.9,48.3,48.2,48.3z"/>
	<path d="M51.2,45.9c0,1.4-1.1,2.5-2.5,2.5H37c-1.4,0-2.5-1.1-2.5-2.5V28.2"/>
	<g>
		<path class="st6" d="M141.6,0.3H58.4c-3.5,0-6.6,2.4-7.5,5.9c-3.5,14.3-11.8,49-11.8,87.4h122.1c0-29.5-8.7-70.8-12-87.1
			C148.4,2.9,145.2,0.3,141.6,0.3z"/>
		<path class="st9" d="M51.2,52.4c2.6-18.8,6-34.7,8.1-43.3h81.3c1.6,7.7,5.5,25.6,8.1,43.3H51.2z"/>
		<path class="st8" d="M66.4,124.5H52.2c-2.5,0-4.5-2-4.5-4.5v-19.2c0-2.5,2-4.5,4.5-4.5h14.1c2.5,0,4.5,2,4.5,4.5V120
			C70.8,122.4,68.8,124.5,66.4,124.5z"/>
		<path class="st8" d="M147.4,124.5h-14.1c-2.5,0-4.5-2-4.5-4.5v-19.2c0-2.5,2-4.5,4.5-4.5h14.1c2.5,0,4.5,2,4.5,4.5V120
			C151.9,122.4,149.9,124.5,147.4,124.5z"/>
		<path d="M70.8,120.8c0,2-1.7,3.7-3.7,3.7H51.4c-2,0-3.7-1.7-3.7-3.7"/>
		<path d="M151.9,120.8c0,2-1.7,3.7-3.7,3.7h-15.8c-2,0-3.7-1.7-3.7-3.7"/>
		<g>
			<rect x="37.8" y="91.9" class="st5" width="124.8" height="15.4"/>
		</g>
		<g>
			<rect x="37.8" y="86.6" class="st10" width="124.8" height="6.6"/>
		</g>
		<rect x="37.8" y="103.3" class="st11" width="124.8" height="4"/>
	</g>
	<g>
		<circle class="st12" cx="55.7" cy="69.4" r="7"/>
		<circle class="st12" cx="144.6" cy="69.4" r="7"/>
	</g>
	<g>
		<g>
			<path class="st13" d="M48.6,69.4c0,0,0-0.1,0-0.3c0-0.2-0.1-0.4-0.1-0.7c0-0.3,0-0.7,0.1-1.1c0.1-0.4,0.2-0.9,0.4-1.5
				c0.2-0.5,0.5-1.1,0.9-1.6c0.4-0.5,0.9-1,1.5-1.4c0.6-0.4,1.3-0.8,2-1c0.8-0.2,1.5-0.3,2.3-0.4c0.6,0,1.5,0.1,2.2,0.4
				c0.7,0.2,1.4,0.6,2,1c0.6,0.4,1.1,0.9,1.5,1.4c0.4,0.5,0.7,1.1,0.9,1.6c0.2,0.5,0.3,1,0.4,1.5c0.1,0.4,0.1,0.8,0.1,1.1
				c0,0.3-0.1,0.6-0.1,0.7c0,0.2,0,0.2,0,0.2s-0.1-0.4-0.3-0.9c-0.1-0.3-0.2-0.6-0.4-1c-0.2-0.4-0.4-0.8-0.7-1.2
				c-0.3-0.4-0.6-0.8-1-1.2c-0.4-0.4-0.9-0.7-1.3-1c-0.5-0.3-1.1-0.5-1.6-0.7c-0.6-0.2-1.1-0.2-1.8-0.2c-0.5,0-1.2,0.1-1.7,0.2
				c-0.6,0.2-1.1,0.4-1.6,0.7c-0.5,0.3-1,0.6-1.3,1c-0.4,0.4-0.7,0.8-1,1.2c-0.3,0.4-0.5,0.8-0.7,1.2c-0.2,0.4-0.3,0.7-0.4,1
				c-0.1,0.3-0.1,0.5-0.2,0.7C48.7,69.4,48.6,69.4,48.6,69.4z"/>
		</g>
		<g>
			<path class="st13" d="M137.5,69.4c0,0,0-0.1,0-0.3c0-0.2-0.1-0.4-0.1-0.7c0-0.3,0-0.7,0.1-1.1c0.1-0.4,0.2-0.9,0.4-1.5
				c0.2-0.5,0.5-1.1,0.9-1.6c0.4-0.5,0.9-1,1.5-1.4c0.6-0.4,1.3-0.8,2-1c0.8-0.2,1.5-0.3,2.3-0.4c0.6,0,1.5,0.1,2.2,0.4
				c0.7,0.2,1.4,0.6,2,1c0.6,0.4,1.1,0.9,1.5,1.4c0.4,0.5,0.7,1.1,0.9,1.6c0.2,0.5,0.3,1,0.4,1.5c0.1,0.4,0.1,0.8,0.1,1.1
				c0,0.3-0.1,0.6-0.1,0.7c0,0.2,0,0.2,0,0.2s-0.1-0.4-0.3-0.9c-0.1-0.3-0.2-0.6-0.4-1c-0.2-0.4-0.4-0.8-0.7-1.2
				c-0.3-0.4-0.6-0.8-1-1.2c-0.4-0.4-0.9-0.7-1.3-1c-0.5-0.3-1.1-0.5-1.6-0.7c-0.6-0.2-1.1-0.2-1.8-0.2c-0.5,0-1.2,0.1-1.7,0.2
				c-0.6,0.2-1.1,0.4-1.6,0.7c-0.5,0.3-1,0.6-1.3,1c-0.4,0.4-0.7,0.8-1,1.2c-0.3,0.4-0.5,0.8-0.7,1.2c-0.2,0.4-0.3,0.7-0.4,1
				c-0.1,0.3-0.1,0.5-0.2,0.7C137.6,69.4,137.5,69.4,137.5,69.4z"/>
		</g>
	</g>
	<g>
		<path class="st12" d="M60,31.6c0,0,0.9-1.4,2.5-3.2c0.8-0.9,1.7-2,2.7-3.1c0.5-0.5,1-1.1,1.6-1.7c0.6-0.6,1.1-1.1,1.7-1.7
			c0.6-0.6,1.1-1.1,1.7-1.7c0.6-0.6,1.1-1.1,1.7-1.6c1.1-1,2.2-1.9,3.1-2.7c1.9-1.5,3.2-2.5,3.2-2.5s-0.9,1.4-2.5,3.2
			c-0.8,0.9-1.7,2-2.7,3.1c-0.5,0.5-1,1.1-1.6,1.7c-0.6,0.6-1.1,1.1-1.7,1.7c-0.6,0.6-1.1,1.1-1.7,1.7c-0.6,0.6-1.1,1.1-1.7,1.6
			c-1.1,1-2.2,1.9-3.1,2.7C61.4,30.7,60,31.6,60,31.6z"/>
	</g>
	<g>
		<path class="st12" d="M122.2,47.3c0,0,0.9-1.4,2.5-3.2c0.8-0.9,1.7-2,2.7-3.1c0.5-0.5,1-1.1,1.6-1.7c0.6-0.6,1.1-1.1,1.7-1.7
			c0.6-0.6,1.1-1.1,1.7-1.7c0.6-0.6,1.1-1.1,1.7-1.6c1.1-1,2.2-1.9,3.1-2.7c1.9-1.5,3.2-2.5,3.2-2.5s-0.9,1.4-2.5,3.2
			c-0.8,0.9-1.7,2-2.7,3.1c-0.5,0.5-1,1.1-1.6,1.7c-0.6,0.6-1.1,1.1-1.7,1.7c-0.6,0.6-1.1,1.1-1.7,1.7c-0.6,0.6-1.1,1.1-1.7,1.6
			c-1.1,1-2.2,1.9-3.1,2.7C123.5,46.4,122.2,47.3,122.2,47.3z"/>
	</g>
	<g>
		<path class="st12" d="M57.4,44.4c0,0,1.7-2.1,4.4-5.1c1.3-1.5,3-3.3,4.7-5.1c0.9-0.9,1.8-1.9,2.7-2.8c0.9-0.9,1.9-1.9,2.8-2.9
			c1-0.9,1.9-1.9,2.9-2.8c0.9-0.9,1.9-1.8,2.8-2.7c1.8-1.7,3.6-3.3,5.1-4.7c3-2.7,5.1-4.4,5.1-4.4S86.3,16,83.6,19
			c-1.3,1.5-2.9,3.3-4.7,5.1C78,25,77.1,26,76.2,27c-0.9,0.9-1.9,1.9-2.8,2.9c-1,0.9-1.9,1.9-2.9,2.8c-0.9,0.9-1.9,1.8-2.8,2.7
			c-1.8,1.7-3.6,3.3-5.1,4.7C59.5,42.8,57.4,44.4,57.4,44.4z"/>
	</g>
</g>
</svg>
