<?xml version="1.0" encoding="utf-8"?>
<!-- Generator: Adobe Illustrator 19.1.0, SVG Export Plug-In . SVG Version: 6.00 Build 0)  -->
<svg version="1.1" id="Layer_1" xmlns="http://www.w3.org/2000/svg" xmlns:xlink="http://www.w3.org/1999/xlink" x="0px" y="0px"
	 viewBox="0 0 200 103" style="enable-background:new 0 0 200 103;" xml:space="preserve">
<style type="text/css">
	.st0{fill:#9F8572;}
	.st1{fill:#C1A58E;}
	.st2{fill:#49494A;}
	.st3{fill:#5C5C5C;}
	.st4{fill:#7A7B7B;}
	.st5{fill:#A4A4A4;}
	.st6{fill:#B11E3B;}
	.st7{fill:none;stroke:#5C5C5C;stroke-width:0.9732;stroke-linecap:round;stroke-miterlimit:10;}
	.st8{fill:#3A3939;}
	.st9{fill:#D3D3D3;}
	.st10{fill:#BBBBBC;}
	.st11{fill:#787878;}
	.st12{fill:#FFFFFF;}
	.st13{fill:#7D7D7D;}
	.st14{fill:#606161;}
	.st15{fill:url(#SVGID_1_);}
	.st16{fill:url(#SVGID_2_);}
	.st17{fill:#45362E;}
	.st18{fill:url(#SVGID_3_);}
	.st19{fill:url(#SVGID_4_);}
	.st20{fill:url(#SVGID_5_);}
	.st21{fill:url(#SVGID_6_);}
	.st22{fill:url(#SVGID_7_);}
	.st23{fill:#262626;}
	.st24{fill:#353535;}
	.st25{fill:#1B1C1C;stroke:#000000;stroke-width:1.7792;stroke-miterlimit:10;}
	.st26{fill:#161616;}
	.st27{fill:#151415;}
	.st28{fill:#1D1D1D;}
	.st29{fill:#D1D1D1;stroke:#121112;stroke-width:1.8708;stroke-miterlimit:10;}
	.st30{fill:#DDDDDC;}
	.st31{fill:#EFEFEF;}
	.st32{fill:#575757;}
	.st33{fill:#8B182E;}
	.st34{fill:#B11E3B;stroke:#8B182E;stroke-width:1.9013;stroke-miterlimit:10;}
	.st35{fill:none;stroke:#CE2D4D;stroke-width:1.1216;stroke-miterlimit:10;}
	.st36{fill:none;stroke:#575757;stroke-width:2.2432;stroke-miterlimit:10;}
	.st37{fill:#B11E3B;stroke:#8B182E;stroke-width:2.2432;stroke-miterlimit:10;}
	.st38{fill:#B11E3B;stroke:#000000;stroke-width:2.1812;stroke-miterlimit:10;}
	.st39{fill:none;stroke:#444445;stroke-width:1.0906;stroke-miterlimit:10;}
	.st40{fill:#444445;}
	.st41{fill:#B11E3B;stroke:#282827;stroke-width:2.2432;stroke-miterlimit:10;}
	.st42{fill:#B11E3B;stroke:#282827;stroke-width:2.2625;stroke-miterlimit:10;}
	.st43{fill:none;stroke:#575757;stroke-width:2.2625;stroke-miterlimit:10;}
	.st44{fill:#494848;}
	.st45{fill:#6B6B6B;}
	.st46{fill:#CECECD;}
	.st47{fill:none;stroke:#DDDDDC;stroke-width:2.5284;stroke-miterlimit:10;}
	.st48{fill:#B11E3B;stroke:#8B182E;stroke-width:1.9326;stroke-miterlimit:10;}
</style>
<g>
	<g>
		<rect x="38.9" y="70" class="st17" width="11.1" height="33.2"/>
		
			<linearGradient id="SVGID_1_" gradientUnits="userSpaceOnUse" x1="-435.6912" y1="-21.1741" x2="-435.6912" y2="19.7447" gradientTransform="matrix(0.8679 -2.229756e-02 2.568334e-02 0.9997 420.1694 71.7054)">
			<stop  offset="0" style="stop-color:#1F471B"/>
			<stop  offset="1" style="stop-color:#427136"/>
		</linearGradient>
		<polyline class="st15" points="24.8,65 0,93.3 24.3,83.4 29.8,101.5 44.9,82.8 61.5,97.3 64.8,81.9 84.5,85.8 66.6,59.6 		"/>
		
			<linearGradient id="SVGID_2_" gradientUnits="userSpaceOnUse" x1="-432.7136" y1="-37.7869" x2="-432.7136" y2="1.3403" gradientTransform="matrix(0.8679 -2.229756e-02 2.568334e-02 0.9997 420.1694 71.7054)">
			<stop  offset="0" style="stop-color:#1F471B"/>
			<stop  offset="1" style="stop-color:#427136"/>
		</linearGradient>
		<polyline class="st16" points="28.3,50 7.4,73 26.6,69.6 28.7,83.1 36.9,69.7 41.4,78 47.3,62.9 57.2,79.3 59.7,61.6 81.3,70.4 
			61.5,43.1 		"/>
		
			<linearGradient id="SVGID_3_" gradientUnits="userSpaceOnUse" x1="7910.0015" y1="-11.676" x2="7910.0015" y2="16.4369" gradientTransform="matrix(-0.6779 1.741539e-02 2.824503e-02 1.0994 5406.6294 -90.6435)">
			<stop  offset="0" style="stop-color:#1F471B"/>
			<stop  offset="1" style="stop-color:#427136"/>
		</linearGradient>
		<polyline class="st18" points="56.3,34 72.8,57.8 57.3,50.1 54.8,64.9 44.5,50.3 34.7,63.7 30.7,52.6 17.1,55.3 34.3,34.6 		"/>
		
			<linearGradient id="SVGID_4_" gradientUnits="userSpaceOnUse" x1="8384.4619" y1="-239.5773" x2="8384.4619" y2="-200.45" gradientTransform="matrix(-0.6283 2.690465e-02 -0.1242 0.7878 5286.04 -12.4058)">
			<stop  offset="0" style="stop-color:#1F471B"/>
			<stop  offset="1" style="stop-color:#427136"/>
		</linearGradient>
		<polyline class="st19" points="57.5,28.7 68.4,45.8 56.8,40.3 53.8,54.8 49.2,44.7 43.2,49.5 42.4,39.9 33.5,53.3 33.5,39.5 
			19.6,47.3 34.2,25 		"/>
		<linearGradient id="SVGID_5_" gradientUnits="userSpaceOnUse" x1="45.4233" y1="1.1625" x2="45.4233" y2="39.904">
			<stop  offset="0" style="stop-color:#1F471B"/>
			<stop  offset="1" style="stop-color:#427136"/>
		</linearGradient>
		<polygon class="st20" points="25.7,30.9 34.9,27.2 36.6,35.4 44,28.6 46.7,39.9 52.3,30.9 54.8,34 56.2,30.9 65.1,37.3 46.7,1.2 
					"/>
	</g>
	<g>
		<polygon points="43.7,55.4 69.3,55.4 89.1,41.1 71,19.8 		"/>
		<polygon class="st23" points="96.3,47.9 189.4,50.9 189.4,103 94.4,103 		"/>
		<polygon class="st24" points="69.3,50.5 94.7,16.9 120.1,50.5 120.1,103 69.3,103 		"/>
		<polyline class="st25" points="113.4,103 113.4,67.6 96.6,67.6 96.6,103 		"/>
		<polygon class="st26" points="71,16.9 42.2,52.2 43.7,55.4 71,22 		"/>
		<polygon class="st24" points="49.4,51.5 47.7,53.7 47.7,103 49.4,103 		"/>
		<rect x="49.4" y="51.5" class="st23" width="2.8" height="51.5"/>
		<polygon class="st23" points="99.9,51.5 98.2,53.7 98.2,103 99.9,103 		"/>
		<rect x="99.9" y="51.5" class="st27" width="2.8" height="51.5"/>
		<polyline points="98.2,52.2 200,52.2 198.9,56.1 98.2,56.1 		"/>
		<polygon class="st28" points="98.2,56.1 98.2,56.1 71,22 71,16.9 99.3,52.2 		"/>
		<polygon class="st26" points="71,16.9 99.3,52.2 200,52.2 165.8,16.9 		"/>
		<rect x="136.2" y="10.9" width="23.9" height="13.6"/>
		<polygon class="st28" points="130.3,10.9 136.2,10.9 136.2,23.8 130.3,18.7 		"/>
		<rect x="129.2" y="9" class="st24" width="7" height="3.4"/>
		<rect x="136.2" y="9" class="st28" width="25.3" height="3.4"/>
		<g>
			<rect x="132.2" y="67.6" class="st29" width="15.9" height="19.7"/>
			<rect x="160.9" y="67.6" class="st29" width="15.9" height="19.7"/>
		</g>
		<g>
			<path class="st12" d="M135,84.1c0,0,0.5-0.7,1.4-1.7c0.8-1,2-2.2,3.2-3.4c1.2-1.2,2.5-2.4,3.4-3.2c1-0.8,1.7-1.4,1.7-1.4
				s-0.5,0.7-1.4,1.7c-0.8,1-2,2.2-3.2,3.4c-1.2,1.2-2.5,2.4-3.4,3.2C135.7,83.6,135,84.1,135,84.1z"/>
		</g>
		<g>
			<path class="st12" d="M165.4,75.4c0,0,0.1-0.3,0.4-0.7c0.3-0.4,0.6-0.9,1.1-1.3c0.4-0.4,0.9-0.8,1.3-1.1c0.4-0.3,0.7-0.4,0.7-0.4
				s-0.1,0.3-0.4,0.7c-0.3,0.4-0.6,0.9-1.1,1.3c-0.4,0.4-0.9,0.8-1.3,1.1C165.7,75.3,165.4,75.4,165.4,75.4z"/>
		</g>
		<g>
			<path class="st12" d="M141,82.7c0,0,0.1-0.3,0.4-0.7c0.3-0.4,0.6-0.9,1.1-1.3c0.4-0.4,0.9-0.8,1.3-1.1c0.4-0.3,0.7-0.4,0.7-0.4
				s-0.1,0.3-0.4,0.7c-0.3,0.4-0.6,0.9-1.1,1.3c-0.4,0.4-0.9,0.8-1.3,1.1C141.3,82.5,141,82.7,141,82.7z"/>
		</g>
		<rect x="75.3" y="67.6" class="st29" width="14.1" height="19.7"/>
		<g>
			<path class="st12" d="M78.1,84.1c0,0,0.4-0.7,1-1.6c0.7-1,1.6-2.2,2.5-3.4c1-1.2,2-2.4,2.8-3.2c0.8-0.8,1.4-1.4,1.4-1.4
				s-0.4,0.7-1,1.6c-0.7,1-1.6,2.2-2.5,3.4c-1,1.2-2,2.4-2.8,3.2C78.7,83.6,78.1,84.1,78.1,84.1z"/>
		</g>
		<g>
			<path class="st12" d="M82.3,82.7c0,0,0.1-0.3,0.4-0.7c0.3-0.4,0.6-0.9,1.1-1.3c0.4-0.4,0.9-0.8,1.3-1.1c0.4-0.3,0.7-0.4,0.7-0.4
				s-0.1,0.3-0.4,0.7c-0.3,0.4-0.6,0.9-1.1,1.3c-0.4,0.4-0.9,0.8-1.3,1.1C82.6,82.5,82.3,82.7,82.3,82.7z"/>
		</g>
		<g>
			<path class="st12" d="M164.5,80.2c0,0,0.5-0.7,1.4-1.7c0.8-1,2-2.2,3.2-3.4c1.2-1.2,2.5-2.4,3.4-3.2c1-0.8,1.7-1.4,1.7-1.4
				s-0.5,0.7-1.4,1.7c-0.8,1-2,2.2-3.2,3.4c-1.2,1.2-2.5,2.4-3.4,3.2C165.2,79.7,164.5,80.2,164.5,80.2z"/>
		</g>
	</g>
</g>
</svg>
