<?xml version="1.0" encoding="utf-8"?>
<!-- Generator: Adobe Illustrator 19.1.0, SVG Export Plug-In . SVG Version: 6.00 Build 0)  -->
<svg version="1.1" id="Layer_1" xmlns="http://www.w3.org/2000/svg" xmlns:xlink="http://www.w3.org/1999/xlink" x="0px" y="0px"
	 viewBox="0 0 200 140" style="enable-background:new 0 0 200 140;" xml:space="preserve">
<style type="text/css">
	.st0{fill:#9F8572;}
	.st1{fill:#C1A58E;}
	.st2{fill:#49494A;}
	.st3{fill:#5C5C5C;}
	.st4{fill:#7A7B7B;}
	.st5{fill:#A4A4A4;}
	.st6{fill:#B11E3B;}
	.st7{fill:none;stroke:#5C5C5C;stroke-width:0.9732;stroke-linecap:round;stroke-miterlimit:10;}
	.st8{fill:#3A3939;}
	.st9{fill:#D3D3D3;}
	.st10{fill:#BBBBBC;}
	.st11{fill:#787878;}
	.st12{fill:#FFFFFF;}
	.st13{fill:#7D7D7D;}
	.st14{fill:#606161;}
	.st15{fill:url(#SVGID_1_);}
	.st16{fill:url(#SVGID_2_);}
	.st17{fill:#45362E;}
	.st18{fill:url(#SVGID_3_);}
	.st19{fill:url(#SVGID_4_);}
	.st20{fill:url(#SVGID_5_);}
	.st21{fill:url(#SVGID_6_);}
	.st22{fill:url(#SVGID_7_);}
	.st23{fill:#262626;}
	.st24{fill:#353535;}
	.st25{fill:#1B1C1C;stroke:#000000;stroke-width:1.7792;stroke-miterlimit:10;}
	.st26{fill:#161616;}
	.st27{fill:#151415;}
	.st28{fill:#1D1D1D;}
	.st29{fill:#D1D1D1;stroke:#121112;stroke-width:1.8708;stroke-miterlimit:10;}
	.st30{fill:#DDDDDC;}
	.st31{fill:#EFEFEF;}
	.st32{fill:#575757;}
	.st33{fill:#8B182E;}
	.st34{fill:#B11E3B;stroke:#8B182E;stroke-width:1.9013;stroke-miterlimit:10;}
	.st35{fill:none;stroke:#CE2D4D;stroke-width:1.1216;stroke-miterlimit:10;}
	.st36{fill:none;stroke:#575757;stroke-width:2.2432;stroke-miterlimit:10;}
	.st37{fill:#B11E3B;stroke:#8B182E;stroke-width:2.2432;stroke-miterlimit:10;}
	.st38{fill:#B11E3B;stroke:#000000;stroke-width:2.1812;stroke-miterlimit:10;}
	.st39{fill:none;stroke:#444445;stroke-width:1.0906;stroke-miterlimit:10;}
	.st40{fill:#444445;}
	.st41{fill:#B11E3B;stroke:#282827;stroke-width:2.2432;stroke-miterlimit:10;}
	.st42{fill:#B11E3B;stroke:#282827;stroke-width:2.2625;stroke-miterlimit:10;}
	.st43{fill:none;stroke:#575757;stroke-width:2.2625;stroke-miterlimit:10;}
	.st44{fill:#494848;}
	.st45{fill:#6B6B6B;}
	.st46{fill:#CECECD;}
	.st47{fill:none;stroke:#DDDDDC;stroke-width:2.5284;stroke-miterlimit:10;}
	.st48{fill:#B11E3B;stroke:#8B182E;stroke-width:1.9326;stroke-miterlimit:10;}
</style>
<g>
	<g>
		<path class="st30" d="M47.5,128.5h99V0h-99c0,0,3.8,18.9,3.8,60.6C51.3,101.3,47.5,128.5,47.5,128.5z"/>
		<polygon class="st31" points="54.4,130.4 153.4,130.4 153.4,1.9 54.4,6.3 		"/>
	</g>
	<polygon class="st32" points="141.4,39.6 68.3,41.6 68.3,39.5 141.4,37.4 	"/>
	<polygon class="st32" points="141.4,49.8 68.3,51.9 68.3,49.7 141.4,47.7 	"/>
	<polygon class="st32" points="141.4,59.9 68.3,61 68.3,58.8 141.4,57.8 	"/>
	<g>
		<polyline class="st33" points="122.1,110.5 120.6,139.3 128.1,133.1 134,140 135,111.5 		"/>
		<polyline class="st6" points="122.5,110.5 123.3,139.3 130.3,132.5 136.8,138.9 135.4,110.5 		"/>
	</g>
	<polygon class="st34" points="139,112.4 134.5,112.6 132.8,116.7 129,114.4 125.3,117 123.3,113 118.9,113.2 119.3,108.7 
		115.5,106.5 118.3,103 116.3,99 120.5,97.6 121,93.2 125.3,94.3 128.1,90.8 131.1,94 135.3,92.7 136.2,97 140.5,98.1 138.8,102.2 
		141.8,105.5 138.2,108 	"/>
</g>
</svg>
